<mxfile host="Electron" modified="2024-07-02T11:23:40.176Z" agent="Mozilla/5.0 (Windows NT 10.0; Win64; x64) AppleWebKit/537.36 (KHTML, like Gecko) draw.io/22.1.2 Chrome/114.0.5735.289 Electron/25.9.4 Safari/537.36" etag="r4TQMfhFK7Jsshll5HwZ" version="22.1.2" type="device">
  <diagram name="Page-1" id="YDqhjDaP1piZdzwtWk-i">
    <mxGraphModel dx="2717" dy="894" grid="1" gridSize="10" guides="1" tooltips="1" connect="1" arrows="1" fold="1" page="1" pageScale="1" pageWidth="1169" pageHeight="827" math="0" shadow="0">
      <root>
        <mxCell id="0" />
        <mxCell id="1" parent="0" />
        <mxCell id="CxoTFEphAylHqTDbwrn--6" value="&quot;Interface&quot;&lt;br&gt;Cell" style="swimlane;fontStyle=0;childLayout=stackLayout;horizontal=1;startSize=30;horizontalStack=0;resizeParent=1;resizeParentMax=0;resizeLast=0;collapsible=1;marginBottom=0;whiteSpace=wrap;html=1;" parent="1" vertex="1">
          <mxGeometry x="580" y="100" width="200" height="300" as="geometry" />
        </mxCell>
        <mxCell id="CxoTFEphAylHqTDbwrn--7" value="setupNeighbours(cellGrid: Cell[][])" style="text;strokeColor=none;fillColor=default;align=left;verticalAlign=middle;spacingLeft=4;spacingRight=4;overflow=hidden;points=[[0,0.5],[1,0.5]];portConstraint=eastwest;rotatable=0;whiteSpace=wrap;html=1;" parent="CxoTFEphAylHqTDbwrn--6" vertex="1">
          <mxGeometry y="30" width="200" height="30" as="geometry" />
        </mxCell>
        <mxCell id="CxoTFEphAylHqTDbwrn--8" value="changeState()" style="text;strokeColor=none;fillColor=default;align=left;verticalAlign=middle;spacingLeft=4;spacingRight=4;overflow=hidden;points=[[0,0.5],[1,0.5]];portConstraint=eastwest;rotatable=0;whiteSpace=wrap;html=1;" parent="CxoTFEphAylHqTDbwrn--6" vertex="1">
          <mxGeometry y="60" width="200" height="30" as="geometry" />
        </mxCell>
        <mxCell id="CxoTFEphAylHqTDbwrn--9" value="calculateNextState()" style="text;strokeColor=none;fillColor=default;align=left;verticalAlign=middle;spacingLeft=4;spacingRight=4;overflow=hidden;points=[[0,0.5],[1,0.5]];portConstraint=eastwest;rotatable=0;whiteSpace=wrap;html=1;" parent="CxoTFEphAylHqTDbwrn--6" vertex="1">
          <mxGeometry y="90" width="200" height="30" as="geometry" />
        </mxCell>
        <mxCell id="CxoTFEphAylHqTDbwrn--17" value="beBorn()" style="text;strokeColor=none;fillColor=default;align=left;verticalAlign=middle;spacingLeft=4;spacingRight=4;overflow=hidden;points=[[0,0.5],[1,0.5]];portConstraint=eastwest;rotatable=0;whiteSpace=wrap;html=1;" parent="CxoTFEphAylHqTDbwrn--6" vertex="1">
          <mxGeometry y="120" width="200" height="30" as="geometry" />
        </mxCell>
        <mxCell id="CxoTFEphAylHqTDbwrn--16" value="die()" style="text;strokeColor=none;fillColor=default;align=left;verticalAlign=middle;spacingLeft=4;spacingRight=4;overflow=hidden;points=[[0,0.5],[1,0.5]];portConstraint=eastwest;rotatable=0;whiteSpace=wrap;html=1;" parent="CxoTFEphAylHqTDbwrn--6" vertex="1">
          <mxGeometry y="150" width="200" height="30" as="geometry" />
        </mxCell>
        <mxCell id="CxoTFEphAylHqTDbwrn--15" value="isAlive()" style="text;strokeColor=none;fillColor=default;align=left;verticalAlign=middle;spacingLeft=4;spacingRight=4;overflow=hidden;points=[[0,0.5],[1,0.5]];portConstraint=eastwest;rotatable=0;whiteSpace=wrap;html=1;" parent="CxoTFEphAylHqTDbwrn--6" vertex="1">
          <mxGeometry y="180" width="200" height="30" as="geometry" />
        </mxCell>
        <mxCell id="CxoTFEphAylHqTDbwrn--14" value="getX()" style="text;strokeColor=none;fillColor=default;align=left;verticalAlign=middle;spacingLeft=4;spacingRight=4;overflow=hidden;points=[[0,0.5],[1,0.5]];portConstraint=eastwest;rotatable=0;whiteSpace=wrap;html=1;" parent="CxoTFEphAylHqTDbwrn--6" vertex="1">
          <mxGeometry y="210" width="200" height="30" as="geometry" />
        </mxCell>
        <mxCell id="CxoTFEphAylHqTDbwrn--13" value="getY()" style="text;strokeColor=none;fillColor=default;align=left;verticalAlign=middle;spacingLeft=4;spacingRight=4;overflow=hidden;points=[[0,0.5],[1,0.5]];portConstraint=eastwest;rotatable=0;whiteSpace=wrap;html=1;" parent="CxoTFEphAylHqTDbwrn--6" vertex="1">
          <mxGeometry y="240" width="200" height="30" as="geometry" />
        </mxCell>
        <mxCell id="CxoTFEphAylHqTDbwrn--12" value="getNeighbours()" style="text;strokeColor=none;fillColor=default;align=left;verticalAlign=middle;spacingLeft=4;spacingRight=4;overflow=hidden;points=[[0,0.5],[1,0.5]];portConstraint=eastwest;rotatable=0;whiteSpace=wrap;html=1;strokeWidth=2;" parent="CxoTFEphAylHqTDbwrn--6" vertex="1">
          <mxGeometry y="270" width="200" height="30" as="geometry" />
        </mxCell>
        <mxCell id="CxoTFEphAylHqTDbwrn--18" value="AbstractCell" style="swimlane;fontStyle=0;childLayout=stackLayout;horizontal=1;startSize=30;horizontalStack=0;resizeParent=1;resizeParentMax=0;resizeLast=0;collapsible=1;marginBottom=0;whiteSpace=wrap;html=1;" parent="1" vertex="1">
          <mxGeometry x="220" y="160" width="210" height="480" as="geometry" />
        </mxCell>
        <mxCell id="CxoTFEphAylHqTDbwrn--19" value="# x: int" style="text;strokeColor=none;fillColor=default;align=left;verticalAlign=middle;spacingLeft=4;spacingRight=4;overflow=hidden;points=[[0,0.5],[1,0.5]];portConstraint=eastwest;rotatable=0;whiteSpace=wrap;html=1;" parent="CxoTFEphAylHqTDbwrn--18" vertex="1">
          <mxGeometry y="30" width="210" height="30" as="geometry" />
        </mxCell>
        <mxCell id="CxoTFEphAylHqTDbwrn--20" value="# y: int" style="text;strokeColor=none;fillColor=default;align=left;verticalAlign=middle;spacingLeft=4;spacingRight=4;overflow=hidden;points=[[0,0.5],[1,0.5]];portConstraint=eastwest;rotatable=0;whiteSpace=wrap;html=1;" parent="CxoTFEphAylHqTDbwrn--18" vertex="1">
          <mxGeometry y="60" width="210" height="30" as="geometry" />
        </mxCell>
        <mxCell id="CxoTFEphAylHqTDbwrn--21" value="# alive: boolean" style="text;strokeColor=none;fillColor=default;align=left;verticalAlign=middle;spacingLeft=4;spacingRight=4;overflow=hidden;points=[[0,0.5],[1,0.5]];portConstraint=eastwest;rotatable=0;whiteSpace=wrap;html=1;" parent="CxoTFEphAylHqTDbwrn--18" vertex="1">
          <mxGeometry y="90" width="210" height="30" as="geometry" />
        </mxCell>
        <mxCell id="CxoTFEphAylHqTDbwrn--23" value="# neighbours: List&amp;lt;Cell&amp;gt;" style="text;strokeColor=none;fillColor=default;align=left;verticalAlign=middle;spacingLeft=4;spacingRight=4;overflow=hidden;points=[[0,0.5],[1,0.5]];portConstraint=eastwest;rotatable=0;whiteSpace=wrap;html=1;" parent="CxoTFEphAylHqTDbwrn--18" vertex="1">
          <mxGeometry y="120" width="210" height="30" as="geometry" />
        </mxCell>
        <mxCell id="CxoTFEphAylHqTDbwrn--22" value="# nextState: boolean" style="text;strokeColor=none;fillColor=default;align=left;verticalAlign=middle;spacingLeft=4;spacingRight=4;overflow=hidden;points=[[0,0.5],[1,0.5]];portConstraint=eastwest;rotatable=0;whiteSpace=wrap;html=1;" parent="CxoTFEphAylHqTDbwrn--18" vertex="1">
          <mxGeometry y="150" width="210" height="30" as="geometry" />
        </mxCell>
        <mxCell id="CxoTFEphAylHqTDbwrn--33" style="text;strokeColor=none;fillColor=default;align=left;verticalAlign=middle;spacingLeft=4;spacingRight=4;overflow=hidden;points=[[0,0.5],[1,0.5]];portConstraint=eastwest;rotatable=0;whiteSpace=wrap;html=1;" parent="CxoTFEphAylHqTDbwrn--18" vertex="1">
          <mxGeometry y="180" width="210" height="30" as="geometry" />
        </mxCell>
        <mxCell id="CxoTFEphAylHqTDbwrn--32" value="+ setupNeighbours(cellGrid Cell[][])" style="text;strokeColor=none;fillColor=default;align=left;verticalAlign=middle;spacingLeft=4;spacingRight=4;overflow=hidden;points=[[0,0.5],[1,0.5]];portConstraint=eastwest;rotatable=0;whiteSpace=wrap;html=1;" parent="CxoTFEphAylHqTDbwrn--18" vertex="1">
          <mxGeometry y="210" width="210" height="30" as="geometry" />
        </mxCell>
        <mxCell id="CxoTFEphAylHqTDbwrn--47" value="+ getNeighbours(): List&amp;lt;Cell&amp;gt;" style="text;strokeColor=none;fillColor=default;align=left;verticalAlign=middle;spacingLeft=4;spacingRight=4;overflow=hidden;points=[[0,0.5],[1,0.5]];portConstraint=eastwest;rotatable=0;whiteSpace=wrap;html=1;" parent="CxoTFEphAylHqTDbwrn--18" vertex="1">
          <mxGeometry y="240" width="210" height="30" as="geometry" />
        </mxCell>
        <mxCell id="CxoTFEphAylHqTDbwrn--46" value="+ getY(): int" style="text;strokeColor=none;fillColor=default;align=left;verticalAlign=middle;spacingLeft=4;spacingRight=4;overflow=hidden;points=[[0,0.5],[1,0.5]];portConstraint=eastwest;rotatable=0;whiteSpace=wrap;html=1;" parent="CxoTFEphAylHqTDbwrn--18" vertex="1">
          <mxGeometry y="270" width="210" height="30" as="geometry" />
        </mxCell>
        <mxCell id="CxoTFEphAylHqTDbwrn--45" value="+ getX(): int" style="text;strokeColor=none;fillColor=default;align=left;verticalAlign=middle;spacingLeft=4;spacingRight=4;overflow=hidden;points=[[0,0.5],[1,0.5]];portConstraint=eastwest;rotatable=0;whiteSpace=wrap;html=1;" parent="CxoTFEphAylHqTDbwrn--18" vertex="1">
          <mxGeometry y="300" width="210" height="30" as="geometry" />
        </mxCell>
        <mxCell id="CxoTFEphAylHqTDbwrn--44" value="+ isAlive(): boolean" style="text;strokeColor=none;fillColor=default;align=left;verticalAlign=middle;spacingLeft=4;spacingRight=4;overflow=hidden;points=[[0,0.5],[1,0.5]];portConstraint=eastwest;rotatable=0;whiteSpace=wrap;html=1;" parent="CxoTFEphAylHqTDbwrn--18" vertex="1">
          <mxGeometry y="330" width="210" height="30" as="geometry" />
        </mxCell>
        <mxCell id="CxoTFEphAylHqTDbwrn--43" value="+ die()" style="text;strokeColor=none;fillColor=default;align=left;verticalAlign=middle;spacingLeft=4;spacingRight=4;overflow=hidden;points=[[0,0.5],[1,0.5]];portConstraint=eastwest;rotatable=0;whiteSpace=wrap;html=1;" parent="CxoTFEphAylHqTDbwrn--18" vertex="1">
          <mxGeometry y="360" width="210" height="30" as="geometry" />
        </mxCell>
        <mxCell id="CxoTFEphAylHqTDbwrn--42" value="+ beBorn()" style="text;strokeColor=none;fillColor=default;align=left;verticalAlign=middle;spacingLeft=4;spacingRight=4;overflow=hidden;points=[[0,0.5],[1,0.5]];portConstraint=eastwest;rotatable=0;whiteSpace=wrap;html=1;" parent="CxoTFEphAylHqTDbwrn--18" vertex="1">
          <mxGeometry y="390" width="210" height="30" as="geometry" />
        </mxCell>
        <mxCell id="CxoTFEphAylHqTDbwrn--40" value="+ changeState()" style="text;strokeColor=none;fillColor=default;align=left;verticalAlign=middle;spacingLeft=4;spacingRight=4;overflow=hidden;points=[[0,0.5],[1,0.5]];portConstraint=eastwest;rotatable=0;whiteSpace=wrap;html=1;" parent="CxoTFEphAylHqTDbwrn--18" vertex="1">
          <mxGeometry y="420" width="210" height="30" as="geometry" />
        </mxCell>
        <mxCell id="CxoTFEphAylHqTDbwrn--39" value="" style="endArrow=none;html=1;rounded=0;exitX=0;exitY=0.5;exitDx=0;exitDy=0;entryX=1;entryY=0.5;entryDx=0;entryDy=0;" parent="CxoTFEphAylHqTDbwrn--18" source="CxoTFEphAylHqTDbwrn--33" target="CxoTFEphAylHqTDbwrn--33" edge="1">
          <mxGeometry width="50" height="50" relative="1" as="geometry">
            <mxPoint x="220" y="280" as="sourcePoint" />
            <mxPoint x="310" y="300" as="targetPoint" />
          </mxGeometry>
        </mxCell>
        <mxCell id="CxoTFEphAylHqTDbwrn--41" value="+ calculateNextState()" style="text;strokeColor=none;fillColor=default;align=left;verticalAlign=middle;spacingLeft=4;spacingRight=4;overflow=hidden;points=[[0,0.5],[1,0.5]];portConstraint=eastwest;rotatable=0;whiteSpace=wrap;html=1;" parent="CxoTFEphAylHqTDbwrn--18" vertex="1">
          <mxGeometry y="450" width="210" height="30" as="geometry" />
        </mxCell>
        <mxCell id="CxoTFEphAylHqTDbwrn--24" value="" style="endArrow=open;html=1;rounded=0;edgeStyle=orthogonalEdgeStyle;endFill=0;dashed=1;" parent="1" source="CxoTFEphAylHqTDbwrn--18" target="CxoTFEphAylHqTDbwrn--6" edge="1">
          <mxGeometry width="50" height="50" relative="1" as="geometry">
            <mxPoint x="645" y="500" as="sourcePoint" />
            <mxPoint x="695" y="450" as="targetPoint" />
          </mxGeometry>
        </mxCell>
        <mxCell id="CxoTFEphAylHqTDbwrn--25" value="ConcreteCell" style="swimlane;fontStyle=0;childLayout=stackLayout;horizontal=1;startSize=30;horizontalStack=0;resizeParent=1;resizeParentMax=0;resizeLast=0;collapsible=1;marginBottom=0;whiteSpace=wrap;html=1;" parent="1" vertex="1">
          <mxGeometry x="225" y="710" width="200" height="90" as="geometry" />
        </mxCell>
        <mxCell id="sXeR2ySPPfD5h6XvWmpi-1" value="+ ConcreteCell(x: int, y: int)" style="text;strokeColor=none;fillColor=default;align=left;verticalAlign=middle;spacingLeft=4;spacingRight=4;overflow=hidden;points=[[0,0.5],[1,0.5]];portConstraint=eastwest;rotatable=0;whiteSpace=wrap;html=1;" parent="CxoTFEphAylHqTDbwrn--25" vertex="1">
          <mxGeometry y="30" width="200" height="30" as="geometry" />
        </mxCell>
        <mxCell id="CxoTFEphAylHqTDbwrn--26" value="+ calculateNextState(): boolean" style="text;strokeColor=none;fillColor=default;align=left;verticalAlign=middle;spacingLeft=4;spacingRight=4;overflow=hidden;points=[[0,0.5],[1,0.5]];portConstraint=eastwest;rotatable=0;whiteSpace=wrap;html=1;" parent="CxoTFEphAylHqTDbwrn--25" vertex="1">
          <mxGeometry y="60" width="200" height="30" as="geometry" />
        </mxCell>
        <mxCell id="CxoTFEphAylHqTDbwrn--29" value="" style="endArrow=block;html=1;rounded=0;edgeStyle=orthogonalEdgeStyle;endFill=0;" parent="1" source="CxoTFEphAylHqTDbwrn--25" target="CxoTFEphAylHqTDbwrn--18" edge="1">
          <mxGeometry width="50" height="50" relative="1" as="geometry">
            <mxPoint x="640" y="490" as="sourcePoint" />
            <mxPoint x="690" y="440" as="targetPoint" />
          </mxGeometry>
        </mxCell>
        <mxCell id="CxoTFEphAylHqTDbwrn--48" value="CellFactory" style="swimlane;fontStyle=0;childLayout=stackLayout;horizontal=1;startSize=30;horizontalStack=0;resizeParent=1;resizeParentMax=0;resizeLast=0;collapsible=1;marginBottom=0;whiteSpace=wrap;html=1;" parent="1" vertex="1">
          <mxGeometry x="580" y="725" width="255" height="60" as="geometry" />
        </mxCell>
        <mxCell id="CxoTFEphAylHqTDbwrn--49" value="+ cellCreate(x: int, y: int): ConcreteCell" style="text;strokeColor=none;fillColor=default;align=left;verticalAlign=middle;spacingLeft=4;spacingRight=4;overflow=hidden;points=[[0,0.5],[1,0.5]];portConstraint=eastwest;rotatable=0;whiteSpace=wrap;html=1;" parent="CxoTFEphAylHqTDbwrn--48" vertex="1">
          <mxGeometry y="30" width="255" height="30" as="geometry" />
        </mxCell>
        <mxCell id="CxoTFEphAylHqTDbwrn--54" value="LifeApp" style="swimlane;fontStyle=0;childLayout=stackLayout;horizontal=1;startSize=30;horizontalStack=0;resizeParent=1;resizeParentMax=0;resizeLast=0;collapsible=1;marginBottom=0;whiteSpace=wrap;html=1;" parent="1" vertex="1">
          <mxGeometry x="-90" y="160" width="210" height="180" as="geometry" />
        </mxCell>
        <mxCell id="CxoTFEphAylHqTDbwrn--55" value="- BOARD_WIDTH: int" style="text;strokeColor=none;fillColor=default;align=left;verticalAlign=middle;spacingLeft=4;spacingRight=4;overflow=hidden;points=[[0,0.5],[1,0.5]];portConstraint=eastwest;rotatable=0;whiteSpace=wrap;html=1;" parent="CxoTFEphAylHqTDbwrn--54" vertex="1">
          <mxGeometry y="30" width="210" height="30" as="geometry" />
        </mxCell>
        <mxCell id="CxoTFEphAylHqTDbwrn--56" value="- BOARD_HEIGHT: int" style="text;strokeColor=none;fillColor=default;align=left;verticalAlign=middle;spacingLeft=4;spacingRight=4;overflow=hidden;points=[[0,0.5],[1,0.5]];portConstraint=eastwest;rotatable=0;whiteSpace=wrap;html=1;" parent="CxoTFEphAylHqTDbwrn--54" vertex="1">
          <mxGeometry y="60" width="210" height="30" as="geometry" />
        </mxCell>
        <mxCell id="CxoTFEphAylHqTDbwrn--60" style="text;strokeColor=none;fillColor=default;align=left;verticalAlign=middle;spacingLeft=4;spacingRight=4;overflow=hidden;points=[[0,0.5],[1,0.5]];portConstraint=eastwest;rotatable=0;whiteSpace=wrap;html=1;" parent="CxoTFEphAylHqTDbwrn--54" vertex="1">
          <mxGeometry y="90" width="210" height="30" as="geometry" />
        </mxCell>
        <mxCell id="CxoTFEphAylHqTDbwrn--61" value="+ main(args: String[])" style="text;strokeColor=none;fillColor=default;align=left;verticalAlign=middle;spacingLeft=4;spacingRight=4;overflow=hidden;points=[[0,0.5],[1,0.5]];portConstraint=eastwest;rotatable=0;whiteSpace=wrap;html=1;" parent="CxoTFEphAylHqTDbwrn--54" vertex="1">
          <mxGeometry y="120" width="210" height="30" as="geometry" />
        </mxCell>
        <mxCell id="CxoTFEphAylHqTDbwrn--62" value="+ run()" style="text;strokeColor=none;fillColor=default;align=left;verticalAlign=middle;spacingLeft=4;spacingRight=4;overflow=hidden;points=[[0,0.5],[1,0.5]];portConstraint=eastwest;rotatable=0;whiteSpace=wrap;html=1;" parent="CxoTFEphAylHqTDbwrn--54" vertex="1">
          <mxGeometry y="150" width="210" height="30" as="geometry" />
        </mxCell>
        <mxCell id="CxoTFEphAylHqTDbwrn--69" value="" style="endArrow=none;html=1;rounded=0;exitX=0;exitY=0.5;exitDx=0;exitDy=0;entryX=1;entryY=0.5;entryDx=0;entryDy=0;" parent="CxoTFEphAylHqTDbwrn--54" source="CxoTFEphAylHqTDbwrn--60" target="CxoTFEphAylHqTDbwrn--60" edge="1">
          <mxGeometry width="50" height="50" relative="1" as="geometry">
            <mxPoint x="220" y="280" as="sourcePoint" />
            <mxPoint x="310" y="300" as="targetPoint" />
          </mxGeometry>
        </mxCell>
        <mxCell id="CxoTFEphAylHqTDbwrn--71" value="&quot;Interface&quot;&lt;br&gt;Runnable" style="swimlane;fontStyle=0;childLayout=stackLayout;horizontal=1;startSize=30;horizontalStack=0;resizeParent=1;resizeParentMax=0;resizeLast=0;collapsible=1;marginBottom=0;whiteSpace=wrap;html=1;" parent="1" vertex="1">
          <mxGeometry x="-400" y="120" width="200" height="60" as="geometry" />
        </mxCell>
        <mxCell id="CxoTFEphAylHqTDbwrn--72" value="run()" style="text;strokeColor=none;fillColor=default;align=left;verticalAlign=middle;spacingLeft=4;spacingRight=4;overflow=hidden;points=[[0,0.5],[1,0.5]];portConstraint=eastwest;rotatable=0;whiteSpace=wrap;html=1;" parent="CxoTFEphAylHqTDbwrn--71" vertex="1">
          <mxGeometry y="30" width="200" height="30" as="geometry" />
        </mxCell>
        <mxCell id="CxoTFEphAylHqTDbwrn--81" value="" style="endArrow=open;html=1;rounded=0;edgeStyle=orthogonalEdgeStyle;endFill=0;dashed=1;" parent="1" source="CxoTFEphAylHqTDbwrn--54" target="CxoTFEphAylHqTDbwrn--71" edge="1">
          <mxGeometry width="50" height="50" relative="1" as="geometry">
            <mxPoint x="-340" y="400" as="sourcePoint" />
            <mxPoint x="-290" y="350" as="targetPoint" />
          </mxGeometry>
        </mxCell>
        <mxCell id="CxoTFEphAylHqTDbwrn--82" value="LifeBoard" style="swimlane;fontStyle=0;childLayout=stackLayout;horizontal=1;startSize=30;horizontalStack=0;resizeParent=1;resizeParentMax=0;resizeLast=0;collapsible=1;marginBottom=0;whiteSpace=wrap;html=1;" parent="1" vertex="1">
          <mxGeometry x="-90" y="410" width="210" height="360" as="geometry" />
        </mxCell>
        <mxCell id="CxoTFEphAylHqTDbwrn--83" value="~width: int" style="text;strokeColor=none;fillColor=default;align=left;verticalAlign=middle;spacingLeft=4;spacingRight=4;overflow=hidden;points=[[0,0.5],[1,0.5]];portConstraint=eastwest;rotatable=0;whiteSpace=wrap;html=1;" parent="CxoTFEphAylHqTDbwrn--82" vertex="1">
          <mxGeometry y="30" width="210" height="30" as="geometry" />
        </mxCell>
        <mxCell id="CxoTFEphAylHqTDbwrn--84" value="~ height: int" style="text;strokeColor=none;fillColor=default;align=left;verticalAlign=middle;spacingLeft=4;spacingRight=4;overflow=hidden;points=[[0,0.5],[1,0.5]];portConstraint=eastwest;rotatable=0;whiteSpace=wrap;html=1;" parent="CxoTFEphAylHqTDbwrn--82" vertex="1">
          <mxGeometry y="60" width="210" height="30" as="geometry" />
        </mxCell>
        <mxCell id="CxoTFEphAylHqTDbwrn--85" value="~ xMax: int" style="text;strokeColor=none;fillColor=default;align=left;verticalAlign=middle;spacingLeft=4;spacingRight=4;overflow=hidden;points=[[0,0.5],[1,0.5]];portConstraint=eastwest;rotatable=0;whiteSpace=wrap;html=1;" parent="CxoTFEphAylHqTDbwrn--82" vertex="1">
          <mxGeometry y="90" width="210" height="30" as="geometry" />
        </mxCell>
        <mxCell id="CxoTFEphAylHqTDbwrn--86" value="~ yMax: int" style="text;strokeColor=none;fillColor=default;align=left;verticalAlign=middle;spacingLeft=4;spacingRight=4;overflow=hidden;points=[[0,0.5],[1,0.5]];portConstraint=eastwest;rotatable=0;whiteSpace=wrap;html=1;" parent="CxoTFEphAylHqTDbwrn--82" vertex="1">
          <mxGeometry y="120" width="210" height="30" as="geometry" />
        </mxCell>
        <mxCell id="CxoTFEphAylHqTDbwrn--87" value="~ timer: Timer" style="text;strokeColor=none;fillColor=default;align=left;verticalAlign=middle;spacingLeft=4;spacingRight=4;overflow=hidden;points=[[0,0.5],[1,0.5]];portConstraint=eastwest;rotatable=0;whiteSpace=wrap;html=1;" parent="CxoTFEphAylHqTDbwrn--82" vertex="1">
          <mxGeometry y="150" width="210" height="30" as="geometry" />
        </mxCell>
        <mxCell id="CxoTFEphAylHqTDbwrn--99" value="~ cellGrid: Cell[][]" style="text;strokeColor=none;fillColor=default;align=left;verticalAlign=middle;spacingLeft=4;spacingRight=4;overflow=hidden;points=[[0,0.5],[1,0.5]];portConstraint=eastwest;rotatable=0;whiteSpace=wrap;html=1;" parent="CxoTFEphAylHqTDbwrn--82" vertex="1">
          <mxGeometry y="180" width="210" height="30" as="geometry" />
        </mxCell>
        <mxCell id="CxoTFEphAylHqTDbwrn--88" style="text;strokeColor=none;fillColor=default;align=left;verticalAlign=middle;spacingLeft=4;spacingRight=4;overflow=hidden;points=[[0,0.5],[1,0.5]];portConstraint=eastwest;rotatable=0;whiteSpace=wrap;html=1;" parent="CxoTFEphAylHqTDbwrn--82" vertex="1">
          <mxGeometry y="210" width="210" height="30" as="geometry" />
        </mxCell>
        <mxCell id="CxoTFEphAylHqTDbwrn--89" value="+ LifeBoard(width: int, height: int)" style="text;strokeColor=none;fillColor=default;align=left;verticalAlign=middle;spacingLeft=4;spacingRight=4;overflow=hidden;points=[[0,0.5],[1,0.5]];portConstraint=eastwest;rotatable=0;whiteSpace=wrap;html=1;" parent="CxoTFEphAylHqTDbwrn--82" vertex="1">
          <mxGeometry y="240" width="210" height="30" as="geometry" />
        </mxCell>
        <mxCell id="CxoTFEphAylHqTDbwrn--90" value="# paintComponent(g: Graphics)" style="text;strokeColor=none;fillColor=default;align=left;verticalAlign=middle;spacingLeft=4;spacingRight=4;overflow=hidden;points=[[0,0.5],[1,0.5]];portConstraint=eastwest;rotatable=0;whiteSpace=wrap;html=1;" parent="CxoTFEphAylHqTDbwrn--82" vertex="1">
          <mxGeometry y="270" width="210" height="30" as="geometry" />
        </mxCell>
        <mxCell id="CxoTFEphAylHqTDbwrn--91" value="+ actionPerformed(e: ActionEvent))" style="text;strokeColor=none;fillColor=default;align=left;verticalAlign=middle;spacingLeft=4;spacingRight=4;overflow=hidden;points=[[0,0.5],[1,0.5]];portConstraint=eastwest;rotatable=0;whiteSpace=wrap;html=1;" parent="CxoTFEphAylHqTDbwrn--82" vertex="1">
          <mxGeometry y="300" width="210" height="30" as="geometry" />
        </mxCell>
        <mxCell id="CxoTFEphAylHqTDbwrn--92" value="- draw(g2: Graphics2D)" style="text;strokeColor=none;fillColor=default;align=left;verticalAlign=middle;spacingLeft=4;spacingRight=4;overflow=hidden;points=[[0,0.5],[1,0.5]];portConstraint=eastwest;rotatable=0;whiteSpace=wrap;html=1;" parent="CxoTFEphAylHqTDbwrn--82" vertex="1">
          <mxGeometry y="330" width="210" height="30" as="geometry" />
        </mxCell>
        <mxCell id="CxoTFEphAylHqTDbwrn--97" value="" style="endArrow=none;html=1;rounded=0;exitX=0;exitY=0.5;exitDx=0;exitDy=0;entryX=1;entryY=0.5;entryDx=0;entryDy=0;" parent="CxoTFEphAylHqTDbwrn--82" source="CxoTFEphAylHqTDbwrn--88" target="CxoTFEphAylHqTDbwrn--88" edge="1">
          <mxGeometry width="50" height="50" relative="1" as="geometry">
            <mxPoint x="220" y="280" as="sourcePoint" />
            <mxPoint x="310" y="300" as="targetPoint" />
          </mxGeometry>
        </mxCell>
        <mxCell id="CxoTFEphAylHqTDbwrn--100" value="" style="endArrow=diamondThin;html=1;rounded=0;endFill=0;" parent="1" source="CxoTFEphAylHqTDbwrn--82" target="CxoTFEphAylHqTDbwrn--54" edge="1">
          <mxGeometry width="50" height="50" relative="1" as="geometry">
            <mxPoint x="-140" y="420" as="sourcePoint" />
            <mxPoint x="-90" y="370" as="targetPoint" />
          </mxGeometry>
        </mxCell>
        <mxCell id="CxoTFEphAylHqTDbwrn--101" value="1" style="text;html=1;align=center;verticalAlign=middle;resizable=0;points=[];autosize=1;strokeColor=none;fillColor=none;" parent="1" vertex="1">
          <mxGeometry x="-20" y="380" width="30" height="30" as="geometry" />
        </mxCell>
        <mxCell id="CxoTFEphAylHqTDbwrn--102" value="" style="endArrow=diamondThin;html=1;rounded=0;edgeStyle=orthogonalEdgeStyle;endFill=0;" parent="1" source="CxoTFEphAylHqTDbwrn--18" target="CxoTFEphAylHqTDbwrn--82" edge="1">
          <mxGeometry width="50" height="50" relative="1" as="geometry">
            <mxPoint x="160" y="410" as="sourcePoint" />
            <mxPoint x="210" y="360" as="targetPoint" />
          </mxGeometry>
        </mxCell>
        <mxCell id="CxoTFEphAylHqTDbwrn--103" value="*" style="text;html=1;align=center;verticalAlign=middle;resizable=0;points=[];autosize=1;strokeColor=none;fillColor=none;" parent="1" vertex="1">
          <mxGeometry x="190" y="370" width="30" height="30" as="geometry" />
        </mxCell>
        <mxCell id="CxoTFEphAylHqTDbwrn--104" value="" style="endArrow=open;html=1;rounded=0;endFill=0;dashed=1;edgeStyle=orthogonalEdgeStyle;" parent="1" source="CxoTFEphAylHqTDbwrn--48" target="CxoTFEphAylHqTDbwrn--25" edge="1">
          <mxGeometry width="50" height="50" relative="1" as="geometry">
            <mxPoint x="560" y="660" as="sourcePoint" />
            <mxPoint x="610" y="610" as="targetPoint" />
          </mxGeometry>
        </mxCell>
      </root>
    </mxGraphModel>
  </diagram>
</mxfile>
